<?xml version="1.0" encoding="UTF-8"?>
<svg version="1.1" xmlns="http://www.w3.org/2000/svg" width="32" height="32">
<path d="M0 0 C1.65 0.33 3.3 0.66 5 1 C5.33 2.32 5.66 3.64 6 5 C5.01 5.66 4.02 6.32 3 7 C2.27617533 9.05925139 2.27617533 9.05925139 2 11 C3.98 11 5.96 11 8 11 C8.33 12.65 8.66 14.3 9 16 C5.04 16 1.08 16 -3 16 C-2.01 16.99 -1.02 17.98 0 19 C0.10097971 22.73624924 -1.36740672 24.68123211 -3.8125 27.3125 C-5.33203125 28.86328125 -5.33203125 28.86328125 -7 30 C-8.32 30 -9.64 30 -11 30 C-10.50168276 26.31245243 -9.89932357 24.39509338 -7 22 C-7.309375 21.443125 -7.61875 20.88625 -7.9375 20.3125 C-9.12679288 17.72403904 -9.86051402 15.85946249 -10 13 C-8.0625 10.1875 -8.0625 10.1875 -6 8 C-6.5775 8.495 -7.155 8.99 -7.75 9.5 C-10 11 -10 11 -14 11 C-13.58578031 6.16743695 -11.53586014 4.17320782 -8 1 C-6.02 1.66 -4.04 2.32 -2 3 C-2 3.99 -2 4.98 -2 6 C-1.34 4.02 -0.68 2.04 0 0 Z " fill="#12B9B7" transform="translate(23,1)"/>
<path d="M0 0 C1.32 0.66 2.64 1.32 4 2 C3.43121059 5.76929105 1.84778826 7.58477614 -0.8125 10.25 C-1.49957031 10.95640625 -2.18664062 11.6628125 -2.89453125 12.390625 C-5 14 -5 14 -9 14 C-9.28125 11.80078125 -9.28125 11.80078125 -9 9 C-7.03125 6.54296875 -7.03125 6.54296875 -4.5 4.1875 C-3.6646875 3.39730469 -2.829375 2.60710938 -1.96875 1.79296875 C-1.3190625 1.20128906 -0.669375 0.60960938 0 0 Z " fill="#0EBCBA" transform="translate(10,17)"/>
<path d="M0 0 C1.98 0 3.96 0 6 0 C6.33 0.99 6.66 1.98 7 3 C4.69 3 2.38 3 0 3 C0 2.01 0 1.02 0 0 Z " fill="#13B9B8" transform="translate(2,11)"/>
<path d="M0 0 C2.31 0 4.62 0 7 0 C6.67 0.99 6.34 1.98 6 3 C4.02 3 2.04 3 0 3 C0 2.01 0 1.02 0 0 Z " fill="#13B9B8" transform="translate(2,4)"/>
<path d="M0 0 C2.31 0 4.62 0 7 0 C7 0.66 7 1.32 7 2 C4.69 2 2.38 2 0 2 C0 1.34 0 0.68 0 0 Z " fill="#13BAB8" transform="translate(0,8)"/>
</svg>
